<svg width="43" height="43" viewBox="0 0 43 43" fill="none" xmlns="http://www.w3.org/2000/svg">
<g clip-path="url(#clip0_717_201)">
<path d="M39.0841 17.5752H25.4128V3.91529C25.4128 1.75307 23.6682 0 21.506 0C19.3438 0 17.6002 1.75307 17.6002 3.91624V17.5847H3.92225C1.76004 17.5847 0.00222827 19.3378 0.00317537 21.5009C0.00222827 22.5816 0.438839 23.5722 1.14632 24.2797C1.85475 24.9891 2.83215 25.4371 3.91184 25.4371H17.6002V39.0866C17.6002 40.1682 18.0292 41.1475 18.7377 41.854C19.4461 42.5624 20.4206 43.001 21.5022 43.001C23.6635 43.001 25.4128 41.2479 25.4128 39.0866V25.4361H39.0841C41.2463 25.4361 42.9994 23.6679 42.9984 21.5057C42.9975 19.3444 41.2444 17.5752 39.0841 17.5752Z" fill="white"/>
</g>
<defs>
<clipPath id="clip0_717_201">
<rect width="43" height="43" fill="white"/>
</clipPath>
</defs>
</svg>
