<svg width="330" height="149" viewBox="0 0 330 149" fill="none" xmlns="http://www.w3.org/2000/svg">
<path d="M71.0277 99.3333C38.4659 100.76 2 148 2 148L310.5 147C310.5 147 318 146.704 323.5 141C329 135.296 329 127.5 329 127.5V2L284 39.5C257 62 215.332 35.5764 194 58C177.494 75.3504 186.273 97.7778 150.5 114C117.085 129.153 107.645 97.7294 71.0277 99.3333Z" fill="url(#paint0_linear_460_312)"/>
<path d="M2 148C2 148 38.4659 100.76 71.0277 99.3333C107.645 97.7294 117.085 129.153 150.5 114C186.273 97.7778 177.494 75.3504 194 58C215.332 35.5764 257 62 284 39.5C301.913 24.5727 329 2 329 2" stroke="#78716C" stroke-width="3"/>
<defs>
<linearGradient id="paint0_linear_460_312" x1="165.5" y1="2" x2="165.5" y2="148" gradientUnits="userSpaceOnUse">
<stop stop-color="#7B7B7B"/>
<stop offset="0.9999" stop-color="#C1B9B4"/>
</linearGradient>
</defs>
</svg>
