<svg width="35" height="35" viewBox="0 0 35 35" fill="none" xmlns="http://www.w3.org/2000/svg">
<path d="M12.3961 20.4167C12.8795 20.4167 13.3432 20.2246 13.6851 19.8828C14.0269 19.5409 14.219 19.0772 14.219 18.5938C14.219 18.1103 14.0269 17.6466 13.6851 17.3048C13.3432 16.9629 12.8795 16.7708 12.3961 16.7708C11.9126 16.7708 11.4489 16.9629 11.1071 17.3048C10.7652 17.6466 10.5732 18.1103 10.5732 18.5938C10.5732 19.0772 10.7652 19.5409 11.1071 19.8828C11.4489 20.2246 11.9126 20.4167 12.3961 20.4167ZM12.3961 25.5208C12.8795 25.5208 13.3432 25.3288 13.6851 24.9869C14.0269 24.6451 14.219 24.1814 14.219 23.6979C14.219 23.2145 14.0269 22.7508 13.6851 22.4089C13.3432 22.0671 12.8795 21.875 12.3961 21.875C11.9126 21.875 11.4489 22.0671 11.1071 22.4089C10.7652 22.7508 10.5732 23.2145 10.5732 23.6979C10.5732 24.1814 10.7652 24.6451 11.1071 24.9869C11.4489 25.3288 11.9126 25.5208 12.3961 25.5208ZM19.3232 18.5938C19.3232 19.0772 19.1311 19.5409 18.7892 19.8828C18.4474 20.2246 17.9837 20.4167 17.5002 20.4167C17.0168 20.4167 16.5531 20.2246 16.2112 19.8828C15.8694 19.5409 15.6773 19.0772 15.6773 18.5938C15.6773 18.1103 15.8694 17.6466 16.2112 17.3048C16.5531 16.9629 17.0168 16.7708 17.5002 16.7708C17.9837 16.7708 18.4474 16.9629 18.7892 17.3048C19.1311 17.6466 19.3232 18.1103 19.3232 18.5938ZM17.5002 25.5208C17.9837 25.5208 18.4474 25.3288 18.7892 24.9869C19.1311 24.6451 19.3232 24.1814 19.3232 23.6979C19.3232 23.2145 19.1311 22.7508 18.7892 22.4089C18.4474 22.0671 17.9837 21.875 17.5002 21.875C17.0168 21.875 16.5531 22.0671 16.2112 22.4089C15.8694 22.7508 15.6773 23.2145 15.6773 23.6979C15.6773 24.1814 15.8694 24.6451 16.2112 24.9869C16.5531 25.3288 17.0168 25.5208 17.5002 25.5208ZM24.4273 18.5938C24.4273 19.0772 24.2353 19.5409 23.8934 19.8828C23.5515 20.2246 23.0879 20.4167 22.6044 20.4167C22.1209 20.4167 21.6573 20.2246 21.3154 19.8828C20.9735 19.5409 20.7815 19.0772 20.7815 18.5938C20.7815 18.1103 20.9735 17.6466 21.3154 17.3048C21.6573 16.9629 22.1209 16.7708 22.6044 16.7708C23.0879 16.7708 23.5515 16.9629 23.8934 17.3048C24.2353 17.6466 24.4273 18.1103 24.4273 18.5938Z" fill="#5F5F5F"/>
<path fill-rule="evenodd" clip-rule="evenodd" d="M11.666 4.73958C11.9561 4.73958 12.2343 4.85481 12.4394 5.05993C12.6445 5.26505 12.7598 5.54325 12.7598 5.83333V6.92708H22.2389V5.83333C22.2389 5.54325 22.3542 5.26505 22.5593 5.05993C22.7644 4.85481 23.0426 4.73958 23.3327 4.73958C23.6228 4.73958 23.901 4.85481 24.1061 5.05993C24.3112 5.26505 24.4264 5.54325 24.4264 5.83333V6.93874C24.6481 6.94458 24.8547 6.95527 25.0462 6.97083C25.6004 7.01458 26.1195 7.11374 26.611 7.36458C27.3658 7.7491 27.9794 8.36273 28.3639 9.11749C28.6148 9.60895 28.7139 10.1281 28.7577 10.6823C28.8014 11.2146 28.8014 11.8635 28.8014 12.6437V23.8146C28.8014 24.5948 28.8014 25.2437 28.7577 25.776C28.7139 26.3302 28.6148 26.8494 28.3639 27.3408C27.9798 28.0954 27.3667 28.709 26.6125 29.0937C26.1195 29.3446 25.6004 29.4437 25.0462 29.4875C24.5139 29.5312 23.865 29.5312 23.0862 29.5312H11.9139C11.1337 29.5312 10.4848 29.5312 9.95248 29.4875C9.39832 29.4437 8.87915 29.3446 8.38769 29.0937C7.63337 28.71 7.01979 28.0974 6.63477 27.3437C6.38394 26.8508 6.28477 26.3317 6.24102 25.7775C6.19727 25.2452 6.19727 24.5962 6.19727 23.8175V12.6437C6.19727 11.8635 6.19727 11.2146 6.24102 10.6823C6.28477 10.1281 6.38394 9.60895 6.63477 9.11749C7.01929 8.36273 7.63292 7.7491 8.38769 7.36458C8.87915 7.11374 9.39832 7.01458 9.95248 6.97083C10.144 6.95527 10.3506 6.94458 10.5723 6.93874V5.83333C10.5723 5.68969 10.6005 5.54747 10.6555 5.41477C10.7105 5.28207 10.791 5.16149 10.8926 5.05993C10.9942 4.95837 11.1147 4.8778 11.2474 4.82283C11.3801 4.76787 11.5224 4.73958 11.666 4.73958ZM26.6139 14.9479H8.38477V23.7708C8.38477 24.605 8.38477 25.1665 8.42123 25.5967C8.45477 26.0167 8.51602 26.2165 8.58311 26.3477C8.75811 26.6919 9.03665 26.9704 9.38082 27.1454C9.51207 27.2125 9.71186 27.2737 10.1304 27.3073C10.562 27.3423 11.122 27.3437 11.9577 27.3437H23.041C23.8752 27.3437 24.4366 27.3437 24.8668 27.3073C25.2868 27.2737 25.4866 27.2125 25.6179 27.1454C25.9614 26.9705 26.2407 26.6913 26.4156 26.3477C26.4827 26.2165 26.5439 26.0167 26.5775 25.5967C26.6125 25.1665 26.6139 24.605 26.6139 23.7708V14.9479ZM15.3118 10.2083C15.0218 10.2083 14.7436 10.3236 14.5384 10.5287C14.3333 10.7338 14.2181 11.012 14.2181 11.3021C14.2181 11.5922 14.3333 11.8704 14.5384 12.0755C14.7436 12.2806 15.0218 12.3958 15.3118 12.3958H19.6868C19.9769 12.3958 20.2551 12.2806 20.4602 12.0755C20.6654 11.8704 20.7806 11.5922 20.7806 11.3021C20.7806 11.012 20.6654 10.7338 20.4602 10.5287C20.2551 10.3236 19.9769 10.2083 19.6868 10.2083H15.3118Z" fill="#5F5F5F"/>
</svg>
