<svg width="35" height="35" viewBox="0 0 35 35" fill="none" xmlns="http://www.w3.org/2000/svg">
<path d="M12.3957 20.4167C12.8791 20.4167 13.3428 20.2246 13.6847 19.8828C14.0265 19.5409 14.2186 19.0772 14.2186 18.5938C14.2186 18.1103 14.0265 17.6466 13.6847 17.3048C13.3428 16.9629 12.8791 16.7708 12.3957 16.7708C11.9122 16.7708 11.4485 16.9629 11.1067 17.3048C10.7648 17.6466 10.5728 18.1103 10.5728 18.5938C10.5728 19.0772 10.7648 19.5409 11.1067 19.8828C11.4485 20.2246 11.9122 20.4167 12.3957 20.4167ZM12.3957 25.5208C12.8791 25.5208 13.3428 25.3288 13.6847 24.9869C14.0265 24.6451 14.2186 24.1814 14.2186 23.6979C14.2186 23.2145 14.0265 22.7508 13.6847 22.4089C13.3428 22.0671 12.8791 21.875 12.3957 21.875C11.9122 21.875 11.4485 22.0671 11.1067 22.4089C10.7648 22.7508 10.5728 23.2145 10.5728 23.6979C10.5728 24.1814 10.7648 24.6451 11.1067 24.9869C11.4485 25.3288 11.9122 25.5208 12.3957 25.5208ZM19.3228 18.5938C19.3228 19.0772 19.1307 19.5409 18.7888 19.8828C18.447 20.2246 17.9833 20.4167 17.4998 20.4167C17.0164 20.4167 16.5527 20.2246 16.2108 19.8828C15.869 19.5409 15.6769 19.0772 15.6769 18.5938C15.6769 18.1103 15.869 17.6466 16.2108 17.3048C16.5527 16.9629 17.0164 16.7708 17.4998 16.7708C17.9833 16.7708 18.447 16.9629 18.7888 17.3048C19.1307 17.6466 19.3228 18.1103 19.3228 18.5938ZM17.4998 25.5208C17.9833 25.5208 18.447 25.3288 18.7888 24.9869C19.1307 24.6451 19.3228 24.1814 19.3228 23.6979C19.3228 23.2145 19.1307 22.7508 18.7888 22.4089C18.447 22.0671 17.9833 21.875 17.4998 21.875C17.0164 21.875 16.5527 22.0671 16.2108 22.4089C15.869 22.7508 15.6769 23.2145 15.6769 23.6979C15.6769 24.1814 15.869 24.6451 16.2108 24.9869C16.5527 25.3288 17.0164 25.5208 17.4998 25.5208ZM24.4269 18.5938C24.4269 19.0772 24.2349 19.5409 23.893 19.8828C23.5511 20.2246 23.0875 20.4167 22.604 20.4167C22.1205 20.4167 21.6569 20.2246 21.315 19.8828C20.9731 19.5409 20.7811 19.0772 20.7811 18.5938C20.7811 18.1103 20.9731 17.6466 21.315 17.3048C21.6569 16.9629 22.1205 16.7708 22.604 16.7708C23.0875 16.7708 23.5511 16.9629 23.893 17.3048C24.2349 17.6466 24.4269 18.1103 24.4269 18.5938Z" fill="white"/>
<path fill-rule="evenodd" clip-rule="evenodd" d="M11.6665 4.73958C11.9566 4.73958 12.2348 4.85481 12.4399 5.05993C12.645 5.26505 12.7603 5.54325 12.7603 5.83333V6.92708H22.2394V5.83333C22.2394 5.54325 22.3547 5.26505 22.5598 5.05993C22.7649 4.85481 23.0431 4.73958 23.3332 4.73958C23.6233 4.73958 23.9015 4.85481 24.1066 5.05993C24.3117 5.26505 24.4269 5.54325 24.4269 5.83333V6.93874C24.6486 6.94458 24.8552 6.95527 25.0467 6.97083C25.6009 7.01458 26.12 7.11374 26.6115 7.36458C27.3663 7.7491 27.9799 8.36273 28.3644 9.11749C28.6153 9.60895 28.7144 10.1281 28.7582 10.6823C28.8019 11.2146 28.8019 11.8635 28.8019 12.6437V23.8146C28.8019 24.5948 28.8019 25.2437 28.7582 25.776C28.7144 26.3302 28.6153 26.8494 28.3644 27.3408C27.9803 28.0954 27.3672 28.709 26.613 29.0937C26.12 29.3446 25.6009 29.4437 25.0467 29.4875C24.5144 29.5312 23.8655 29.5312 23.0867 29.5312H11.9144C11.1342 29.5312 10.4853 29.5312 9.95296 29.4875C9.3988 29.4437 8.87963 29.3446 8.38817 29.0937C7.63385 28.71 7.02027 28.0974 6.63525 27.3437C6.38442 26.8508 6.28525 26.3317 6.2415 25.7775C6.19775 25.2452 6.19775 24.5962 6.19775 23.8175V12.6437C6.19775 11.8635 6.19775 11.2146 6.2415 10.6823C6.28525 10.1281 6.38442 9.60895 6.63525 9.11749C7.01977 8.36273 7.6334 7.7491 8.38817 7.36458C8.87963 7.11374 9.3988 7.01458 9.95296 6.97083C10.1445 6.95527 10.3511 6.94458 10.5728 6.93874V5.83333C10.5728 5.68969 10.601 5.54747 10.656 5.41477C10.711 5.28207 10.7915 5.16149 10.8931 5.05993C10.9947 4.95837 11.1152 4.8778 11.2479 4.82283C11.3806 4.76787 11.5229 4.73958 11.6665 4.73958ZM26.6144 14.9479H8.38525V23.7708C8.38525 24.605 8.38525 25.1665 8.42171 25.5967C8.45525 26.0167 8.5165 26.2165 8.58359 26.3477C8.75859 26.6919 9.03713 26.9704 9.3813 27.1454C9.51255 27.2125 9.71234 27.2737 10.1309 27.3073C10.5625 27.3423 11.1225 27.3437 11.9582 27.3437H23.0415C23.8757 27.3437 24.4371 27.3437 24.8673 27.3073C25.2873 27.2737 25.4871 27.2125 25.6184 27.1454C25.9619 26.9705 26.2412 26.6913 26.4161 26.3477C26.4832 26.2165 26.5444 26.0167 26.578 25.5967C26.613 25.1665 26.6144 24.605 26.6144 23.7708V14.9479ZM15.3123 10.2083C15.0223 10.2083 14.7441 10.3236 14.5389 10.5287C14.3338 10.7338 14.2186 11.012 14.2186 11.3021C14.2186 11.5922 14.3338 11.8704 14.5389 12.0755C14.7441 12.2806 15.0223 12.3958 15.3123 12.3958H19.6873C19.9774 12.3958 20.2556 12.2806 20.4607 12.0755C20.6659 11.8704 20.7811 11.5922 20.7811 11.3021C20.7811 11.012 20.6659 10.7338 20.4607 10.5287C20.2556 10.3236 19.9774 10.2083 19.6873 10.2083H15.3123Z" fill="white"/>
</svg>
