<svg width="43" height="43" viewBox="0 0 43 43" fill="none" xmlns="http://www.w3.org/2000/svg">
<path d="M14.1836 24.6875H5.94925C4.85826 24.6937 3.81406 25.1314 3.0448 25.9051C2.27553 26.6787 1.84373 27.7254 1.84375 28.8164V37.0508C1.84319 37.5901 1.949 38.1242 2.15513 38.6225C2.36125 39.1209 2.66364 39.5737 3.04498 39.955C3.42632 40.3364 3.87913 40.6388 4.37748 40.8449C4.87584 41.051 5.40995 41.1568 5.94925 41.1563H14.1836C15.2748 41.1574 16.3219 40.7259 17.0954 39.9563C17.869 39.1867 18.3059 38.1419 18.3104 37.0508V28.8164C18.3109 28.2743 18.2046 27.7374 17.9974 27.2365C17.7902 26.7355 17.4862 26.2804 17.1029 25.8971C16.7196 25.5138 16.2645 25.2098 15.7635 25.0026C15.2626 24.7954 14.7257 24.6891 14.1836 24.6896M14.1836 1.84375H5.94925C5.40995 1.84319 4.87584 1.949 4.37748 2.15513C3.87913 2.36125 3.42632 2.66364 3.04498 3.04498C2.66364 3.42632 2.36125 3.87913 2.15513 4.37748C1.949 4.87584 1.84319 5.40995 1.84375 5.94925V14.1836C1.84262 15.2748 2.27412 16.3219 3.04369 17.0954C3.81325 17.869 4.85811 18.3059 5.94925 18.3104H14.1836C14.7257 18.3109 15.2626 18.2046 15.7635 17.9974C16.2645 17.7902 16.7196 17.4862 17.1029 17.1029C17.4862 16.7196 17.7902 16.2645 17.9974 15.7635C18.2046 15.2626 18.3109 14.7257 18.3104 14.1836V5.94925C18.3059 4.85811 17.869 3.81325 17.0954 3.04369C16.3219 2.27412 15.2748 1.84262 14.1836 1.84375ZM37.0508 1.84375H28.8164C27.7252 1.84262 26.6781 2.27412 25.9046 3.04369C25.131 3.81325 24.6941 4.85811 24.6896 5.94925V14.1836C24.6902 15.2779 25.1252 16.3273 25.8989 17.1011C26.6727 17.8749 27.7221 18.3098 28.8164 18.3104H37.0508C38.1419 18.3059 39.1867 17.869 39.9563 17.0954C40.7259 16.3219 41.1574 15.2748 41.1563 14.1836V5.94925C41.1568 5.40995 41.051 4.87584 40.8449 4.37748C40.6388 3.87913 40.3364 3.42632 39.955 3.04498C39.5737 2.66364 39.1209 2.36125 38.6225 2.15513C38.1242 1.949 37.5901 1.84319 37.0508 1.84375ZM32.9219 24.6875C30.738 24.6875 28.6435 25.555 27.0993 27.0993C25.555 28.6435 24.6875 30.738 24.6875 32.9219C24.6875 35.1058 25.555 37.2002 27.0993 38.7445C28.6435 40.2887 30.738 41.1563 32.9219 41.1563C35.1058 41.1563 37.2002 40.2887 38.7445 38.7445C40.2887 37.2002 41.1563 35.1058 41.1563 32.9219C41.1563 30.738 40.2887 28.6435 38.7445 27.0993C37.2002 25.555 35.1058 24.6875 32.9219 24.6875Z" stroke="white" stroke-width="3" stroke-linecap="round" stroke-linejoin="round"/>
</svg>
