<svg width="42" height="42" viewBox="0 0 42 42" fill="none" xmlns="http://www.w3.org/2000/svg">
<path d="M21.0003 41.8333C18.1531 41.8333 15.4621 41.2861 12.9274 40.1917C10.3927 39.0972 8.17949 37.6042 6.28783 35.7125C4.39616 33.8208 2.9031 31.6076 1.80866 29.0729C0.714215 26.5382 0.166992 23.8472 0.166992 21C0.166992 18.1181 0.714215 15.4188 1.80866 12.9021C2.9031 10.3854 4.39616 8.18056 6.28783 6.28751C8.17949 4.39445 10.3927 2.90139 12.9274 1.80834C15.4621 0.715283 18.1531 0.168061 21.0003 0.166672C23.8823 0.166672 26.5823 0.713894 29.1003 1.80834C31.6184 2.90278 33.8226 4.39584 35.7128 6.28751C37.6031 8.17917 39.0962 10.384 40.192 12.9021C41.2878 15.4201 41.8351 18.1195 41.8337 21C41.8337 23.8472 41.2864 26.5382 40.192 29.0729C39.0975 31.6076 37.6045 33.8215 35.7128 35.7146C33.8212 37.6076 31.6163 39.1007 29.0982 40.1938C26.5802 41.2868 23.8809 41.8333 21.0003 41.8333ZM21.0003 37.5625C21.9031 36.3125 22.6844 35.0104 23.3441 33.6563C24.0038 32.3021 24.542 30.8611 24.9587 29.3333H17.042C17.4587 30.8611 17.9969 32.3021 18.6566 33.6563C19.3163 35.0104 20.0975 36.3125 21.0003 37.5625ZM15.5837 36.7292C14.9587 35.5833 14.4121 34.3938 13.9441 33.1604C13.476 31.9271 13.085 30.6514 12.7712 29.3333H6.62533C7.63227 31.0695 8.8913 32.5799 10.4024 33.8646C11.9135 35.1493 13.6406 36.1042 15.5837 36.7292ZM26.417 36.7292C28.3614 36.1042 30.0892 35.1493 31.6003 33.8646C33.1114 32.5799 34.3698 31.0695 35.3753 29.3333H29.2295C28.917 30.6528 28.5267 31.9292 28.0587 33.1625C27.5906 34.3958 27.0434 35.5847 26.417 36.7292ZM4.85449 25.1667H11.9378C11.8337 24.4722 11.7559 23.7868 11.7045 23.1104C11.6531 22.434 11.6267 21.7306 11.6253 21C11.6239 20.2695 11.6503 19.5667 11.7045 18.8917C11.7587 18.2167 11.8364 17.5306 11.9378 16.8333H4.85449C4.68088 17.5278 4.55102 18.2139 4.46491 18.8917C4.3788 19.5695 4.33505 20.2722 4.33366 21C4.33227 21.7278 4.37602 22.4313 4.46491 23.1104C4.5538 23.7896 4.68366 24.475 4.85449 25.1667ZM16.1045 25.1667H25.8962C26.0003 24.4722 26.0788 23.7868 26.1316 23.1104C26.1844 22.434 26.2101 21.7306 26.2087 21C26.2073 20.2695 26.1809 19.5667 26.1295 18.8917C26.0781 18.2167 26.0003 17.5306 25.8962 16.8333H16.1045C16.0003 17.5278 15.9225 18.2139 15.8712 18.8917C15.8198 19.5695 15.7934 20.2722 15.792 21C15.7906 21.7278 15.817 22.4313 15.8712 23.1104C15.9253 23.7896 16.0031 24.475 16.1045 25.1667ZM30.0628 25.1667H37.1462C37.3198 24.4722 37.4503 23.7868 37.5378 23.1104C37.6253 22.434 37.6684 21.7306 37.667 21C37.6656 20.2695 37.6226 19.5667 37.5378 18.8917C37.4531 18.2167 37.3226 17.5306 37.1462 16.8333H30.0628C30.167 17.5278 30.2455 18.2139 30.2982 18.8917C30.351 19.5695 30.3767 20.2722 30.3753 21C30.3739 21.7278 30.3475 22.4313 30.2962 23.1104C30.2448 23.7896 30.167 24.475 30.0628 25.1667ZM29.2295 12.6667H35.3753C34.3684 10.9306 33.1101 9.42014 31.6003 8.13542C30.0906 6.8507 28.3628 5.89584 26.417 5.27084C27.042 6.41667 27.5892 7.60626 28.0587 8.83959C28.5281 10.0729 28.9184 11.3486 29.2295 12.6667ZM17.042 12.6667H24.9587C24.542 11.1389 24.0038 9.69792 23.3441 8.34376C22.6844 6.98959 21.9031 5.68751 21.0003 4.43751C20.0975 5.68751 19.3163 6.98959 18.6566 8.34376C17.9969 9.69792 17.4587 11.1389 17.042 12.6667ZM6.62533 12.6667H12.7712C13.0837 11.3472 13.4746 10.0708 13.9441 8.83751C14.4135 7.60417 14.96 6.41528 15.5837 5.27084C13.6392 5.89584 11.9114 6.8507 10.4003 8.13542C8.88922 9.42014 7.63088 10.9306 6.62533 12.6667Z" fill="#5F5F5F"/>
</svg>
