<svg width="76" height="76" viewBox="0 0 76 76" fill="none" xmlns="http://www.w3.org/2000/svg">
<path d="M44.3333 25.3334V19C44.3333 17.3203 43.6661 15.7094 42.4783 14.5217C41.2906 13.3339 39.6797 12.6667 38 12.6667H15.8333C14.1536 12.6667 12.5427 13.3339 11.355 14.5217C10.1673 15.7094 9.5 17.3203 9.5 19V57C9.5 58.6797 10.1673 60.2906 11.355 61.4784C12.5427 62.6661 14.1536 63.3334 15.8333 63.3334H38C39.6797 63.3334 41.2906 62.6661 42.4783 61.4784C43.6661 60.2906 44.3333 58.6797 44.3333 57V50.6667" stroke="#3B513B" stroke-width="5" stroke-linecap="round" stroke-linejoin="round"/>
<path d="M28.5 38H66.5M66.5 38L57 28.5M66.5 38L57 47.5" stroke="#3B513B" stroke-width="5" stroke-linecap="round" stroke-linejoin="round"/>
</svg>
