<svg width="43" height="41" viewBox="0 0 43 41" fill="none" xmlns="http://www.w3.org/2000/svg">
<path d="M13.782 5.17875L7.968 3.23863C7.32909 3.02582 6.64875 2.9679 5.98305 3.06961C5.31736 3.17133 4.68536 3.42978 4.13915 3.82367C3.59294 4.21756 3.14815 4.7356 2.84143 5.33512C2.5347 5.93463 2.37484 6.59845 2.375 7.27188V32.3108C2.37479 33.2031 2.65545 34.0729 3.17722 34.7968C3.69899 35.5207 4.43538 36.062 5.282 36.344L13.782 39.1766C14.6538 39.467 15.5962 39.467 16.468 39.1766L26.532 35.8234C27.4044 35.5325 28.3477 35.5325 29.2201 35.8234L35.032 37.7614C35.6709 37.9742 36.3513 38.0321 37.0169 37.9304C37.6826 37.8287 38.3146 37.5702 38.8608 37.1763C39.4071 36.7824 39.8519 36.2644 40.1586 35.6649C40.4653 35.0654 40.6252 34.4015 40.625 33.7281V8.68925C40.6254 7.79716 40.345 6.92758 39.8236 6.2037C39.3023 5.47982 38.5664 4.93835 37.7201 4.656L29.2201 1.82337C28.3477 1.53254 27.4044 1.53254 26.532 1.82337L16.4659 5.17663C15.5941 5.46699 14.6517 5.46699 13.7799 5.17663" stroke="white" stroke-width="3" stroke-linecap="round" stroke-linejoin="round"/>
<path d="M15.125 5.625V39.625M27.875 1.375V35.375" stroke="white" stroke-width="3" stroke-linejoin="round"/>
</svg>
