<svg width="50" height="39" viewBox="0 0 50 39" fill="none" xmlns="http://www.w3.org/2000/svg">
<path d="M0 7.97727C0 5.86157 0.846617 3.83252 2.35361 2.33649C3.86059 0.84046 5.90451 0 8.03571 0H41.9643C44.0955 0 46.1394 0.84046 47.6464 2.33649C49.1534 3.83252 50 5.86157 50 7.97727V31.0227C50 33.1384 49.1534 35.1675 47.6464 36.6635C46.1394 38.1595 44.0955 39 41.9643 39H8.03571C5.90451 39 3.86059 38.1595 2.35361 36.6635C0.846617 35.1675 0 33.1384 0 31.0227V7.97727ZM8.03571 3.54545C6.85171 3.54545 5.7162 4.01238 4.87899 4.8435C4.04177 5.67463 3.57143 6.80188 3.57143 7.97727V10.6364H46.4286V7.97727C46.4286 6.80188 45.9582 5.67463 45.121 4.8435C44.2838 4.01238 43.1483 3.54545 41.9643 3.54545H8.03571ZM3.57143 31.0227C3.57143 32.1981 4.04177 33.3254 4.87899 34.1565C5.7162 34.9876 6.85171 35.4545 8.03571 35.4545H41.9643C43.1483 35.4545 44.2838 34.9876 45.121 34.1565C45.9582 33.3254 46.4286 32.1981 46.4286 31.0227V14.1818H3.57143V31.0227ZM33.9286 24.8182H39.2857C39.7593 24.8182 40.2135 25.0049 40.5484 25.3374C40.8833 25.6699 41.0714 26.1208 41.0714 26.5909C41.0714 27.0611 40.8833 27.512 40.5484 27.8444C40.2135 28.1769 39.7593 28.3636 39.2857 28.3636H33.9286C33.455 28.3636 33.0008 28.1769 32.6659 27.8444C32.331 27.512 32.1429 27.0611 32.1429 26.5909C32.1429 26.1208 32.331 25.6699 32.6659 25.3374C33.0008 25.0049 33.455 24.8182 33.9286 24.8182Z" fill="white"/>
</svg>
