<svg width="43" height="43" viewBox="0 0 43 43" fill="none" xmlns="http://www.w3.org/2000/svg">
<path fill-rule="evenodd" clip-rule="evenodd" d="M19.3219 2.37925C19.4463 2.92873 19.3474 3.50512 19.0469 3.98171C18.7465 4.45829 18.2691 4.79606 17.7196 4.92075C17.3027 5.01562 16.8894 5.1262 16.4808 5.25225C16.2141 5.33457 15.9339 5.36357 15.656 5.33758C15.3782 5.3116 15.1082 5.23115 14.8614 5.10081C14.6147 4.97048 14.396 4.79282 14.2179 4.57798C14.0398 4.36314 13.9058 4.11532 13.8235 3.84868C13.7411 3.58204 13.7121 3.3018 13.7381 3.02395C13.7641 2.7461 13.8446 2.47609 13.9749 2.22934C14.1052 1.98259 14.2829 1.76392 14.4977 1.58582C14.7126 1.40773 14.9604 1.27369 15.227 1.19137C15.737 1.0327 16.2541 0.894579 16.7783 0.776995C17.0505 0.715088 17.3323 0.707429 17.6074 0.754456C17.8826 0.801484 18.1459 0.902275 18.3821 1.05107C18.6183 1.19987 18.8229 1.39375 18.9841 1.62165C19.1454 1.84954 19.2602 2.10698 19.3219 2.37925ZM23.6781 2.37925C23.8028 1.82983 24.1406 1.35241 24.6172 1.05196C25.0938 0.751501 25.6702 0.6526 26.2196 0.776995C35.6844 2.92325 42.7521 11.385 42.7521 21.5C42.7521 33.2364 33.2364 42.75 21.5021 42.75C11.385 42.75 2.92327 35.6844 0.777019 26.2196C0.666855 25.6756 0.773941 25.11 1.07537 24.6439C1.3768 24.1778 1.84865 23.8482 2.39 23.7255C2.93135 23.6028 3.49922 23.6967 3.97217 23.9873C4.44511 24.2779 4.78559 24.742 4.92077 25.2804C5.59698 28.2421 7.05449 30.9685 9.14166 33.176C11.2288 35.3834 13.8694 36.9912 16.7886 37.8321C19.7079 38.6731 22.7991 38.7163 25.7408 37.9575C28.6824 37.1986 31.3669 35.6654 33.5151 33.5172C35.6633 31.3691 37.1965 28.6845 37.9554 25.7429C38.7142 22.8012 38.6709 19.71 37.83 16.7907C36.9891 13.8715 35.3813 11.2309 33.1739 9.14376C30.9664 7.05659 28.24 5.59908 25.2783 4.92287C24.7288 4.79773 24.2515 4.45945 23.9514 3.98243C23.6514 3.50542 23.5531 2.92874 23.6781 2.37925ZM10.0548 6.03C10.2448 6.23461 10.3927 6.47468 10.4899 6.73647C10.5871 6.99827 10.6317 7.27665 10.6212 7.55571C10.6108 7.83477 10.5454 8.10904 10.4289 8.36282C10.3124 8.6166 10.147 8.84493 9.94214 9.03475C9.62764 9.32516 9.32519 9.62691 9.03477 9.94C8.64874 10.3417 8.12042 10.5757 7.56355 10.5916C7.00669 10.6076 6.46582 10.4043 6.05741 10.0254C5.64899 9.64651 5.4057 9.12239 5.37991 8.56589C5.35412 8.0094 5.5479 7.46503 5.91952 7.05C6.28077 6.659 6.6576 6.28145 7.05002 5.91737C7.25464 5.72733 7.4947 5.57948 7.7565 5.48228C8.01829 5.38508 8.29668 5.34043 8.57574 5.35089C8.8548 5.36135 9.12906 5.42671 9.38284 5.54324C9.63663 5.65977 9.86495 5.82517 10.0548 6.03ZM21.5 8.75C22.0636 8.75 22.6041 8.97388 23.0026 9.37239C23.4011 9.77091 23.625 10.3114 23.625 10.875V20.6202L29.3774 26.3726C29.7645 26.7734 29.9787 27.3102 29.9738 27.8673C29.969 28.4245 29.7455 28.9575 29.3515 29.3515C28.9575 29.7455 28.4245 29.969 27.8674 29.9738C27.3102 29.9786 26.7734 29.7645 26.3726 29.3774L19.9976 23.0024C19.5991 22.6039 19.3751 22.0635 19.375 21.5V10.875C19.375 10.3114 19.5989 9.77091 19.9974 9.37239C20.3959 8.97388 20.9364 8.75 21.5 8.75ZM3.84764 13.8245C4.3861 13.9905 4.83656 14.3637 5.09997 14.8618C5.36338 15.3599 5.41816 15.9422 5.25227 16.4807C5.12623 16.8894 5.01565 17.3026 4.92077 17.7196C4.78559 18.258 4.44511 18.7221 3.97217 19.0127C3.49922 19.3033 2.93135 19.3972 2.39 19.2745C1.84865 19.1518 1.3768 18.8222 1.07537 18.3561C0.773941 17.89 0.666855 17.3244 0.777019 16.7804C0.896019 16.2562 1.03414 15.7391 1.19139 15.2291C1.35744 14.6907 1.73055 14.2402 2.22867 13.9768C2.72679 13.7134 3.30914 13.6586 3.84764 13.8245Z" fill="white"/>
</svg>
